P3
# a piet program /code/MULPNC.ppm
34 23
255
255   0   0    0   0   0  255 255 255  255 255 255  255 255 255  255 255 255 
255 255 255  255 255 255  255 255 255  255 255 255  255 255 255  255 255 255 
255 255 255  255 255 255  255 255 255  255 255 255  255 255 255  255 255 255 
255 255 255  255 255 255  255 255 255  255 255 255  255 255 255  255 255 255 
  0   0   0  255 255 255  255 255 255  255 255 255  255 255 255  255 255 255 
255 255 255  255 255 255  255 255 255  255 255 255  255   0   0  255 255 255 
255 255 255  255 255 255  255 255 255  255 255 255  255 255 255  255 255 255 
255 255 255  255 255 255  192   0   0    0   0   0  255 255 255  255 255 255 
255 255 255  255 255 255  255 255 255  255 255 255  255 255 255  255 255 255 
255 255 255  255 192 255    0   0   0    0   0   0  255   0   0    0   0   0 
255 255 255  255 255 255  255 255 255  255 255 255  255 255 255  255 255 255 
255 255 255  255 255 255  255   0   0  255 255 255  255   0   0  192   0   0 
255 255 255  255 255 255  255 255 255  255 255 255  255 255 255  255   0   0 
192   0   0  255 192 192  255 255   0  255   0   0    0   0 255    0   0 192 
192 192 255  255   0 255    0 255   0  192   0 192  255   0 255  255 192 255 
255   0 255  255 255 255  255   0   0  255 255 255  255 255 255  255 255 255 
255 255 255  255 255 255  255 255 255  255 255 255  255 255 255  255 255 255 
255 255 255  255 255 255  255   0   0    0   0   0  255 255 255  255 255 255 
255 255 255  255 255 255  255 255 255    0   0   0  255 255 255  255 255 255 
  0   0   0  192 192   0  192 192   0  192 192   0  255 255   0  255 255   0 
255 255   0  192   0 192    0   0   0  255 255 255  255 255 255    0   0   0 
255   0   0    0   0   0  255 255 255  255 255 255  255 255 255  255 255 255 
255 255 255  255 255 255  255 255 255  255 255 255  255 255 255  255 255 255 
255 255 255  255 255 255  255 255 255  255 255 255  255 255 255  255 255 255 
  0   0   0    0 255 255    0   0   0  255 255 255  255 255 255  192 192   0 
192 192   0  192 192   0  255 255   0  255 255   0  255 255   0  255 192 255 
255 255 255  255 255 255  255 255 255  255 255 255    0   0   0  255 255 255 
255 255 255  255 255 255  255 255 255  255 255 255  255 255 255  255 255 255 
255 255 255  255 255 255  255 255 255  255 255 255  255 255 255  255 255 255 
255 255 255  255 255 255  255 255 255  255 255 255  255 255 255    0 255 255 
192 255 192    0 192   0  255 255 192  192 192   0  192 192   0  192 192   0 
255 255   0    0 255 255    0 192 192  255   0 255  255 255 255  255 255 255 
255 255 255    0   0   0  255 255 255  255 255 255  255 255 255  255 255 255 
255 255 255  255 255 255  255 255 255  255 255 255  255 255 255  255 255 255 
255 255 255  255 255 255  255 255 255  255 255 255  255 255 255  255 255 255 
255 255 255  255 255 255    0   0   0    0 255 255    0   0   0  255 255 255 
255 255 255    0   0   0  192 192   0  192 192   0  255 255   0  255 255   0 
255 255   0    0   0   0  255 255 255  255 255 255    0   0   0  255   0   0 
  0   0   0  255 255 255  255 255 255  255 255 255  255 255 255  255 255 255 
255 255 255  255 255 255  255 255 255  255 255 255  255 255 255  255 255 255 
255 255 255  255 255 255  255 255 255  255 255 255  255 255 255  255 255 255 
  0   0   0    0   0 192    0   0   0  255 255 255  192 255 255  255 255 255 
255 255 255  255 255 255  255 192 192  192   0   0  255   0   0  255   0   0 
255   0   0  192   0   0  255 255 255  255   0   0  255 255 255  255 255 255 
255 255 255  255 255 255  255 255 255  255 255 255  255 255 255  255 255 255 
255 255 255  255 255 255  255 255 255  255 255 255  255 255 255  255 255 255 
255 255 255  255 255 255  255 255 255    0   0   0  255   0   0  255   0   0 
255   0   0    0   0   0  192 255 255    0 255 255    0 192 192    0 192 192 
  0 192 192  255 255 255  255 255 255  255 255 255  255 255 255  255 255 255 
  0   0   0  255   0   0    0   0   0  255 255 255  255 255 255  255 255 255 
255 255 255  255 255 255  255 255 255  255 255 255  255 255 255  255 255 255 
255 255 255  255 255 255  255 255 255  255 255 255  255 255 255  255 255 255 
  0   0   0    0   0   0  255   0   0  255   0   0  255   0   0  192 255 255 
192 255 255    0 255 255    0 192 192    0 192 192    0 192 192  192 255 255 
  0   0 192  255   0 255  192   0   0    0   0   0  255 255 255    0   0   0 
255 255 255  255 255 255  255 255 255  255 255 255  255 255 255  255 255 255 
255 255 255  255 255 255  255 255 255  255 255 255  255 255 255  255 255 255 
255 255 255  255 255 255  255 255 255  255 255 255  255 192 255    0   0   0 
  0   0   0  255 255 255    0   0   0  255 255 255  255 255 255    0   0   0 
255 255 192  255 255 255  255 255 255  255 255 255  255 255 255  255 255 255 
  0   0 192  255 255 255  255 255 255  255 255 255  255 255 255  255 255 255 
255 255 255  255 255 255  255 255 255  255 255 255  255 255 255  255 255 255 
255 255 255  255 255 255  255 255 255  255 255 255  255 255 255  255 255 255 
255 255 255  255 255 255  255 192 255  192   0 192  255   0 255    0   0 255 
192 192 255  192 192 255  192 192 255    0   0 192  255 255 192  192 192 255 
  0 192 192    0 255 255  192 255 255  255 192 255  192 192 255  255 255 255 
255 255 255  255 255 255  255 255 255  255 255 255  255 255 255  255 255 255 
255 255 255  255 255 255  255 255 255  255 255 255  255 255 255  255 255 255 
255 255 255  255 255 255  255 255 255  255 255 255    0   0   0  255 192 255 
255 192 255    0   0   0  255   0 255  255 255 255  192 192 255  192 192 255 
  0   0 192    0   0 192  255 255 255  255 255 255  255 255 255  255 255 255 
255 255 255  255 255 255    0   0   0  255 255 255  255 255 255  255 255 255 
255 255 255  255 255 255  255 255 255  255 255 255  255 255 255  255 255 255 
255 255 255  255 255 255  255 255 255  255 255 255  255 255 255  255 255 255 
255 255 255  255 255 255  255 255 255    0   0   0    0 255 255  255 255 255 
255 255 255  255 255 255    0   0   0  255 255 255    0   0 192    0   0 192 
255 255 255  255 255 255  255 255 255    0   0   0  255 255 255  255 255 255 
255 255 255  255 255 255  255 255 255  255 255 255  255 255 255  255 255 255 
255 255 255  255 255 255  255 255 255  255 255 255  255 255 255  255 255 255 
255 255 255  255 255 255  255 255 255  255 255 255  255 255 255  255 255 255 
255 255 255  255 255 255  255   0   0  255 255 255  255 255 255    0   0   0 
192 192 255    0   0 255    0   0 192  255 255 255  255 255 255  255 255 255 
  0   0   0  255   0   0    0   0   0  255 255 255  255 255 255  255 255 255 
255 255 255  255 255 255  255 255 255  255 255 255  255 255 255  255 255 255 
255 255 255  255 255 255  255 255 255  255 255 255  255 255 255  255 255 255 
255 255 255  255 255 255  255 255 255  255 255 255  255 255 255  255 255 255 
192 255 255  255 255 255  255 255 255    0   0   0  192 192 255  192 192 255 
255 255 255  255   0   0  255 192 192  255   0   0  255 255 255  255   0   0 
255 255 255  255 255 255  255 255 255  255 255 255  255 255 255  255 255 255 
255 255 255  255 255 255  255 255 255  255 255 255  255 255 255  255 255 255 
255 255 255  255 255 255  255 255 255  255 255 255  255 255 255  255 255 255 
255 255 255  255 255 255  255 255 255  192 255 255  192 255 255  192 255 255 
192 255 255  255 255 255    0   0 255  255 255 255  255 255 255  255 255 255 
255 255 255  255 255 255    0   0   0  255   0   0    0   0   0  255 255 255 
255 255 255  255 255 255  255 255 255  255 255 255  255 255 255  255 255 255 
255 255 255  255 255 255  255 255 255  255 255 255  255 255 255  255 255 255 
255 255 255  255 255 255  255 255 255  255 255 255  255 255 255  255 255 255 
  0   0   0  255 255 255  255 255 255  255 255 255  255 255 255  255 255 255 
  0   0 255  255 255 255  255 255 255  255 255 255  255 255 255  255 255 255 
255 255 255    0   0   0  255 255 255  255 255 255  255 255 255  255 255 255 
255 255 255  255 255 255  255 255 255  255 255 255  255 255 255  255 255 255 
255 255 255  255 255 255  255 255 255  255 255 255  255 255 255  255 255 255 
255 255 255  255 255 255  255 255 255    0   0   0  255   0   0  255 255 255 
255 255 255    0   0   0    0   0 255    0   0 255    0   0 255  255 255 255 
255 255 255    0   0   0  255 255 255  255 255 255  255 255 255  255 255 255 
255 255 255  255 255 255  255 255 255  255 255 255  255 255 255  255 255 255 
255 255 255  255 255 255  255 255 255  255 255 255  255 255 255  255 255 255 
255 255 255  255 255 255  255 255 255  255 255 255  255 255 255  255 255 255 
255 255 255    0   0   0  255   0   0  255   0   0  255   0   0  255   0   0 
  0   0   0  255 255 255    0   0   0  255 255 255    0   0   0  255   0   0 
  0   0   0  255 255 255  255 255 255  255 255 255  255 255 255  255 255 255 
255 255 255  255 255 255  255 255 255  255 255 255  255 255 255  255 255 255 
255 255 255  255 255 255  255 255 255  255 255 255  255 255 255  255 255 255 
255 255 255  255 255 255  255 255 255  255 255 255  255 255 255  255 255 255 
255 255 255  255   0   0  255   0   0  255   0   0  255   0   0  192   0   0 
255 255 255  255 255 255  255 255 255  255   0   0  255 255 255  255 255 255 
255 255 255  255 255 255  255 255 255  255 255 255  255 255 255  255 255 255 
255 255 255  255 255 255  255 255 255  255 255 255  255 255 255  255 255 255 
255 255 255  255 255 255  255 255 255  255 255 255  255 255 255  255 255 255 
255 255 255  255 255 255  255 255 255  255 255 255  255 255 255    0   0   0 
255 255 255  255 255 255    0   0   0  255 255 255  255 255 255  255 255 255 
  0   0   0  255   0   0    0   0   0  255 255 255  255 255 255  255 255 255 
255 255 255  255 255 255  255 255 255  255 255 255  255 255 255  255 255 255 
255 255 255  255 255 255  255 255 255  255 255 255  255 255 255  255 255 255 
255 255 255  255 255 255  255 255 255  255 255 255  255 255 255  255 255 255 
255 255 255  255 255 255  255 255 255  255 255 255  255 255 255  255 255 255 
255 255 255  255 255 255  255 255 255  255 255 255  255 255 255    0   0   0 
255 255 255  255 255 255  255 255 255  255 255 255  255 255 255  255 255 255 
255 255 255  255 255 255  255 255 255  255 255 255  255 255 255  255 255 255 
255 255 255  255 255 255  255 255 255  255 255 255  255 255 255  255 255 255 
255 255 255  255 255 255  
